<svg width="110" height="70" viewBox="0 0 110 70" fill="none" xmlns="http://www.w3.org/2000/svg">
<path d="M49.7054 41.0036C50.4787 41.0036 51.009 41.081 51.2963 41.2356C51.6056 41.3682 51.7603 41.6775 51.7603 42.1636C51.7603 42.6497 51.4841 43.169 50.9317 43.7213C50.4014 44.2516 50.1363 45.0028 50.1363 45.975V48.6927C50.1363 49.4218 50.3462 49.9963 50.766 50.4161C51.2079 50.8359 51.4288 51.2115 51.4288 51.5429C51.4288 52.4488 50.4567 53.5978 48.5123 54.9898C46.59 56.3817 44.1596 57.5749 41.221 58.5691C38.2823 59.5413 35.4542 60.0274 32.7365 60.0274C25.8429 60.0274 19.9104 57.7516 14.939 53.2001C9.98972 48.6264 7.51508 42.5503 7.51508 34.9717C7.51508 30.5527 8.52041 26.4431 10.531 22.6427C12.5638 18.8424 15.3809 15.8817 18.9824 13.7606C22.5839 11.6173 26.6272 10.5457 31.1125 10.5457C35.4652 10.5457 39.4976 11.3412 43.2095 12.932C46.9215 14.5007 48.7774 16.2573 48.7774 18.2016V20.853C48.7774 21.1182 48.8327 21.5269 48.9431 22.0793C49.0536 22.6096 49.1089 23.1067 49.1089 23.5707C49.1089 24.0126 48.9984 24.3993 48.7774 24.7307C48.5786 25.04 48.3024 25.1947 47.9489 25.1947C47.5733 25.1947 47.2197 25.0511 46.8883 24.7638C46.5569 24.4545 46.0708 23.626 45.43 22.2782C44.2148 19.7593 42.9444 17.9365 41.6187 16.8097C39.2987 14.8432 36.0728 13.86 31.9411 13.86C26.7046 13.86 22.5065 15.7712 19.3469 19.5936C16.2095 23.4161 14.6407 28.4316 14.6407 34.6403C14.6407 41.7107 16.342 47.1681 19.7446 51.0127C23.1473 54.8351 27.5331 56.7463 32.9022 56.7463C35.6862 56.7463 38.2713 56.1939 40.6575 55.0892C43.0438 53.9623 44.2369 52.3273 44.2369 50.1841V45.7099C44.2369 44.6272 43.2206 44.0859 41.1878 44.0859C40.8343 44.0859 40.2819 44.108 39.5307 44.1522C38.8016 44.1964 38.2823 44.2185 37.973 44.2185C37.1334 44.2185 36.4816 44.0528 36.0176 43.7213C35.5536 43.3899 35.3216 42.9591 35.3216 42.4288C35.3216 41.4787 35.9624 41.0036 37.2439 41.0036H49.7054Z" fill="#262A4F"/>
<path d="M54.7432 43.8694C54.7432 44.0803 54.7979 44.26 54.9072 44.4084C55.0166 44.5569 55.2588 44.6624 55.6338 44.7249C56.0088 44.7874 56.2354 44.8655 56.3135 44.9592C56.3994 45.053 56.4424 45.1702 56.4424 45.3108C56.4424 45.5608 56.251 45.6858 55.8682 45.6858C55.6338 45.6858 55.2861 45.6584 54.8252 45.6038C54.3643 45.5491 54.0166 45.5217 53.7822 45.5217C53.5635 45.5217 53.2432 45.5491 52.8213 45.6038C52.3994 45.6584 52.0791 45.6858 51.8604 45.6858C51.5479 45.6858 51.3447 45.6506 51.251 45.5803C51.165 45.51 51.1221 45.4124 51.1221 45.2874C51.1221 45.1624 51.1572 45.0569 51.2275 44.9709C51.3057 44.885 51.54 44.8147 51.9307 44.76C52.3291 44.6975 52.5869 44.5686 52.7041 44.3733C52.8291 44.1702 52.8916 43.9358 52.8916 43.6702V31.0256C52.8916 30.7522 52.8291 30.5139 52.7041 30.3108C52.5791 30.0999 52.3213 29.9475 51.9307 29.8538C51.54 29.76 51.3057 29.6663 51.2275 29.5725C51.1572 29.4788 51.1221 29.3733 51.1221 29.2561C51.1221 29.1389 51.1846 29.0452 51.3096 28.9749C51.4424 28.9045 51.5791 28.8694 51.7197 28.8694C51.8447 28.8694 52.0283 28.8928 52.2705 28.9397C52.5205 28.9866 52.7041 29.01 52.8213 29.01C52.9541 29.01 53.1533 28.9866 53.4189 28.9397C53.6846 28.8928 53.8838 28.8694 54.0166 28.8694C54.2666 28.8694 54.4502 28.9358 54.5674 29.0686C54.6846 29.2014 54.7432 29.4397 54.7432 29.7834V43.8694ZM60.3447 33.4749C60.7041 33.4749 61.0127 33.6077 61.2705 33.8733C61.5361 34.1311 61.6689 34.4397 61.6689 34.7991C61.6689 35.1194 61.54 35.3928 61.2822 35.6194C61.0244 35.8381 60.7197 35.9475 60.3682 35.9475C60.0166 35.9475 59.7119 35.8264 59.4541 35.5842C59.2041 35.3342 59.0791 35.0374 59.0791 34.6936C59.0791 34.3655 59.2041 34.0803 59.4541 33.8381C59.7119 33.5959 60.0088 33.4749 60.3447 33.4749ZM61.2822 43.6702C61.2822 44.053 61.3525 44.303 61.4932 44.4202C61.6338 44.5374 61.8213 44.6155 62.0557 44.6545C62.29 44.6858 62.4541 44.7327 62.5479 44.7952C62.6494 44.8577 62.7002 44.9866 62.7002 45.1819C62.7002 45.4397 62.4736 45.5686 62.0205 45.5686C61.8252 45.5686 61.5322 45.5452 61.1416 45.4983C60.751 45.4514 60.4619 45.428 60.2744 45.428C60.0869 45.428 59.8135 45.4592 59.4541 45.5217C59.0947 45.5842 58.8252 45.6155 58.6455 45.6155C58.4658 45.6155 58.3096 45.5647 58.1768 45.4631C58.0518 45.3616 57.9893 45.2288 57.9893 45.0647C57.9893 44.9631 58.0244 44.8772 58.0947 44.8069C58.165 44.7288 58.3447 44.6663 58.6338 44.6194C58.9229 44.5725 59.1221 44.4788 59.2314 44.3381C59.3486 44.1975 59.4072 43.8577 59.4072 43.3186V39.3577C59.4072 39.0217 59.3369 38.7991 59.1963 38.6897C59.0557 38.5803 58.8486 38.4983 58.5752 38.4436C58.3018 38.3889 58.1299 38.3186 58.0596 38.2327C57.9971 38.1467 57.9658 38.0413 57.9658 37.9163C57.9658 37.7756 58.0205 37.6624 58.1299 37.5764C58.2471 37.4827 58.3838 37.4358 58.54 37.4358C58.6729 37.4358 58.8604 37.4631 59.1025 37.5178C59.3525 37.5725 59.5361 37.5999 59.6533 37.5999C59.7861 37.5999 59.9893 37.5803 60.2627 37.5413C60.5361 37.5022 60.7393 37.4827 60.8721 37.4827C61.1611 37.4827 61.3057 37.7249 61.3057 38.2092C61.3057 38.2874 61.3018 38.3928 61.2939 38.5256C61.2861 38.6506 61.2822 38.7366 61.2822 38.7834V43.6702ZM73.3057 42.9319C73.3057 43.3147 73.3838 43.6663 73.54 43.9866C73.6963 44.2991 73.9775 44.5256 74.3838 44.6663C74.79 44.8069 75.0244 44.9084 75.0869 44.9709C75.1494 45.0334 75.1807 45.1038 75.1807 45.1819C75.1807 45.5178 75.001 45.6858 74.6416 45.6858C74.5244 45.6858 74.3604 45.6545 74.1494 45.592C73.9385 45.5295 73.665 45.4983 73.3291 45.4983C73.1025 45.4983 72.8525 45.5295 72.5791 45.592C72.3135 45.6545 72.1455 45.6858 72.0752 45.6858C71.9268 45.6858 71.8018 45.6311 71.7002 45.5217C71.5986 45.4124 71.54 45.2991 71.5244 45.1819C71.5166 45.0647 71.4932 45.0061 71.4541 45.0061L71.2666 45.0881C70.0791 45.76 69.0791 46.0959 68.2666 46.0959C67.1104 46.0959 66.0674 45.6545 65.1377 44.7717C64.2158 43.8889 63.7549 42.8772 63.7549 41.7366C63.7549 40.4319 64.2236 39.3577 65.1611 38.5139C66.0986 37.6702 67.1885 37.2483 68.4307 37.2483C68.9541 37.2483 69.4932 37.3811 70.0479 37.6467C70.6025 37.9045 70.8799 38.1936 70.8799 38.5139C70.8799 38.6155 70.8408 38.7014 70.7627 38.7717C70.6924 38.842 70.6104 38.8772 70.5166 38.8772C70.3994 38.8772 70.126 38.7834 69.6963 38.5959C69.2744 38.4006 68.8838 38.303 68.5244 38.303C67.7354 38.303 67.0674 38.6311 66.5205 39.2874C65.9736 39.9436 65.7002 40.7249 65.7002 41.6311C65.7002 42.4045 65.9463 43.1702 66.4385 43.928C66.9385 44.6858 67.6182 45.0647 68.4775 45.0647C68.9385 45.0647 69.4658 44.9397 70.0596 44.6897C70.6611 44.4319 71.0439 44.0881 71.208 43.6584C71.3721 43.2209 71.4541 42.5608 71.4541 41.678V31.5999C71.4541 30.9514 71.3447 30.5022 71.126 30.2522C70.9072 30.0022 70.5908 29.8147 70.1768 29.6897C69.7627 29.5647 69.5088 29.4709 69.415 29.4084C69.3213 29.3459 69.2744 29.2444 69.2744 29.1038C69.2744 29.0022 69.333 28.9163 69.4502 28.8459C69.5674 28.7678 69.7314 28.7288 69.9424 28.7288C70.0283 28.7288 70.2119 28.7483 70.4932 28.7874C70.7744 28.8264 71.001 28.8459 71.1729 28.8459C71.5322 28.8459 71.8408 28.8303 72.0986 28.7991C72.3643 28.7678 72.5244 28.7522 72.5791 28.7522C72.8604 28.7522 73.0479 28.8342 73.1416 28.9983C73.2354 29.1545 73.2822 29.3733 73.2822 29.6545C73.2822 30.1702 73.2861 30.5842 73.2939 30.8967C73.3018 31.2092 73.3057 31.4866 73.3057 31.7288V42.9319ZM83.0439 40.9163C83.2236 40.9163 83.3447 40.885 83.4072 40.8225C83.4697 40.76 83.501 40.6467 83.501 40.4827C83.501 39.8811 83.2666 39.3186 82.7979 38.7952C82.3369 38.2717 81.6377 38.01 80.7002 38.01C80.0518 38.01 79.3799 38.3186 78.6846 38.9358C77.9971 39.553 77.6533 40.428 77.6533 41.5608C77.6533 42.3889 78.0166 43.135 78.7432 43.7991C79.4775 44.4553 80.2979 44.7834 81.2041 44.7834C81.8916 44.7834 82.6338 44.5686 83.4307 44.1389C83.7354 43.9749 83.9346 43.8928 84.0283 43.8928C84.1689 43.8928 84.2783 43.9319 84.3564 44.01C84.4424 44.0881 84.4854 44.1858 84.4854 44.303C84.4854 44.5842 84.0518 44.9319 83.1846 45.3459C82.3252 45.7522 81.4385 45.9553 80.5244 45.9553C79.1729 45.9553 78.0361 45.4944 77.1143 44.5725C76.1924 43.6506 75.7314 42.553 75.7314 41.2795C75.7314 40.1155 76.2354 39.1194 77.2432 38.2913C78.2588 37.4631 79.3955 37.0491 80.6533 37.0491C82.2861 37.0491 83.5088 37.467 84.3213 38.303C85.1338 39.1389 85.54 40.1389 85.54 41.303C85.54 41.553 85.4775 41.7092 85.3525 41.7717C85.2275 41.8264 84.9971 41.8538 84.6611 41.8538H79.2822C78.8447 41.8538 78.626 41.6936 78.626 41.3733C78.626 41.0686 78.8525 40.9163 79.3057 40.9163H83.0439Z" fill="#262A4F"/>
<path d="M59.3135 30.0061C59.3135 30.5686 59.6885 30.9592 60.4385 31.178C60.626 31.2327 60.7627 31.2952 60.8486 31.3655C60.9424 31.4358 60.9893 31.5686 60.9893 31.7639C60.9893 31.8655 60.9268 31.9514 60.8018 32.0217C60.6846 32.0999 60.5557 32.1389 60.415 32.1389C60.2666 32.1389 60.0635 32.1038 59.8057 32.0334C59.5557 31.9631 59.3525 31.928 59.1963 31.928C59.0166 31.928 58.79 31.9631 58.5166 32.0334C58.2432 32.1038 58.0596 32.1389 57.9658 32.1389C57.8564 32.1389 57.7471 32.0999 57.6377 32.0217C57.5361 31.9436 57.4854 31.8655 57.4854 31.7874C57.4854 31.6624 57.4463 31.5999 57.3682 31.5999C57.3135 31.5999 57.2432 31.6272 57.1572 31.6819C56.2744 32.2288 55.3213 32.5022 54.2979 32.5022C53.8135 32.5022 53.2705 32.3772 52.6689 32.1272C52.0752 31.8772 51.5986 31.4944 51.2393 30.9788C50.8799 30.4553 50.7002 29.8108 50.7002 29.0452C50.7002 28.2327 51.0869 27.5139 51.8604 26.8889C52.6416 26.2639 53.6455 25.9514 54.8721 25.9514C55.2861 25.9514 55.7393 26.0686 56.2314 26.303C56.7314 26.5295 56.9814 26.7639 56.9814 27.0061C56.9814 27.1233 56.9307 27.217 56.8291 27.2874C56.7275 27.3577 56.6025 27.3928 56.4541 27.3928C56.3525 27.3928 56.1533 27.3225 55.8564 27.1819C55.5596 27.0334 55.2549 26.9592 54.9424 26.9592C54.3018 26.9592 53.7705 27.1506 53.3486 27.5334C52.9268 27.9084 52.7158 28.4124 52.7158 29.0452C52.7158 29.7795 52.958 30.3459 53.4424 30.7444C53.9268 31.135 54.4854 31.3303 55.1182 31.3303C55.6885 31.3303 56.2119 31.1428 56.6885 30.7678C57.1729 30.3928 57.415 29.8928 57.415 29.2678V26.092C57.415 25.6155 57.2549 25.2288 56.9346 24.9319C56.6221 24.635 56.2002 24.4866 55.6689 24.4866C54.9893 24.4866 54.3291 24.7014 53.6885 25.1311C53.4697 25.2795 53.3213 25.3538 53.2432 25.3538C53.0557 25.3538 52.8955 25.3069 52.7627 25.2131C52.6299 25.1116 52.5635 24.9827 52.5635 24.8264C52.5635 24.4436 52.9111 24.1194 53.6064 23.8538C54.3096 23.5881 55.0752 23.4553 55.9033 23.4553C56.9268 23.4553 57.751 23.7131 58.376 24.2288C59.001 24.7444 59.3135 25.3577 59.3135 26.0686V30.0061ZM71.29 29.4319C71.29 29.8147 71.3682 30.1663 71.5244 30.4866C71.6807 30.7991 71.9619 31.0256 72.3682 31.1663C72.7744 31.3069 73.0088 31.4084 73.0713 31.4709C73.1338 31.5334 73.165 31.6038 73.165 31.6819C73.165 32.0178 72.9854 32.1858 72.626 32.1858C72.5088 32.1858 72.3447 32.1545 72.1338 32.092C71.9229 32.0295 71.6494 31.9983 71.3135 31.9983C71.0869 31.9983 70.8369 32.0295 70.5635 32.092C70.2979 32.1545 70.1299 32.1858 70.0596 32.1858C69.9111 32.1858 69.7861 32.1311 69.6846 32.0217C69.583 31.9124 69.5244 31.7991 69.5088 31.6819C69.501 31.5647 69.4775 31.5061 69.4385 31.5061L69.251 31.5881C68.0635 32.26 67.0635 32.5959 66.251 32.5959C65.0947 32.5959 64.0518 32.1545 63.1221 31.2717C62.2002 30.3889 61.7393 29.3772 61.7393 28.2366C61.7393 26.9319 62.208 25.8577 63.1455 25.0139C64.083 24.1702 65.1729 23.7483 66.415 23.7483C66.9385 23.7483 67.4775 23.8811 68.0322 24.1467C68.5869 24.4045 68.8643 24.6936 68.8643 25.0139C68.8643 25.1155 68.8252 25.2014 68.7471 25.2717C68.6768 25.342 68.5947 25.3772 68.501 25.3772C68.3838 25.3772 68.1104 25.2834 67.6807 25.0959C67.2588 24.9006 66.8682 24.803 66.5088 24.803C65.7197 24.803 65.0518 25.1311 64.5049 25.7874C63.958 26.4436 63.6846 27.2249 63.6846 28.1311C63.6846 28.9045 63.9307 29.6702 64.4229 30.428C64.9229 31.1858 65.6025 31.5647 66.4619 31.5647C66.9229 31.5647 67.4502 31.4397 68.0439 31.1897C68.6455 30.9319 69.0283 30.5881 69.1924 30.1584C69.3564 29.7209 69.4385 29.0608 69.4385 28.178V18.0999C69.4385 17.4514 69.3291 17.0022 69.1104 16.7522C68.8916 16.5022 68.5752 16.3147 68.1611 16.1897C67.7471 16.0647 67.4932 15.9709 67.3994 15.9084C67.3057 15.8459 67.2588 15.7444 67.2588 15.6038C67.2588 15.5022 67.3174 15.4163 67.4346 15.3459C67.5518 15.2678 67.7158 15.2288 67.9268 15.2288C68.0127 15.2288 68.1963 15.2483 68.4775 15.2874C68.7588 15.3264 68.9854 15.3459 69.1572 15.3459C69.5166 15.3459 69.8252 15.3303 70.083 15.2991C70.3486 15.2678 70.5088 15.2522 70.5635 15.2522C70.8447 15.2522 71.0322 15.3342 71.126 15.4983C71.2197 15.6545 71.2666 15.8733 71.2666 16.1545C71.2666 16.6702 71.2705 17.0842 71.2783 17.3967C71.2861 17.7092 71.29 17.9866 71.29 18.2288V29.4319ZM81.6963 28.7874L81.7314 28.8342C82.5049 29.2092 83.1299 29.7405 83.6064 30.428C84.083 31.1155 84.3213 31.8538 84.3213 32.6428C84.3213 33.8459 83.7822 34.8303 82.7041 35.5959C81.626 36.3694 80.3564 36.7561 78.8955 36.7561C77.3955 36.7561 76.1182 36.3577 75.0635 35.5608C74.0166 34.7717 73.4932 33.7366 73.4932 32.4553C73.4932 31.7053 73.7393 31.0022 74.2314 30.3459C74.7236 29.6897 75.3682 29.1936 76.165 28.8577L76.2354 28.7756L76.1416 28.6584C75.751 28.4163 75.4424 28.0999 75.2158 27.7092C74.9971 27.3108 74.8877 26.8772 74.8877 26.4084C74.8877 25.6506 75.2158 25.0256 75.8721 24.5334C76.5361 24.0334 77.376 23.7209 78.3916 23.5959C78.5166 23.5803 78.6064 23.5178 78.6611 23.4084C78.8252 23.0334 79.0986 22.6233 79.4814 22.178C79.8721 21.7249 80.2236 21.4553 80.5361 21.3694C80.8486 21.2756 81.3838 21.2288 82.1416 21.2288C82.5869 21.2288 82.8096 21.4592 82.8096 21.9202C82.8096 22.1936 82.7002 22.4163 82.4814 22.5881C82.2627 22.7522 81.9814 22.8342 81.6377 22.8342C81.5596 22.8342 81.4619 22.8225 81.3447 22.7991C81.2275 22.7756 81.1299 22.7639 81.0518 22.7639C80.6689 22.7639 80.3486 22.8694 80.0908 23.0803C79.833 23.2913 79.7041 23.4319 79.7041 23.5022C79.7041 23.5803 79.7549 23.6194 79.8564 23.6194C80.7939 23.7366 81.54 24.0608 82.0947 24.592C82.6494 25.1233 82.9268 25.7913 82.9268 26.5959C82.9268 27.4475 82.5439 28.1428 81.7783 28.6819L81.6963 28.7874ZM78.9893 28.5647C79.5986 28.5647 80.1143 28.3577 80.5361 27.9436C80.9658 27.5217 81.1807 27.0178 81.1807 26.4319C81.1807 26.1116 81.0791 25.7991 80.876 25.4944C80.6729 25.1819 80.4072 24.9514 80.0791 24.803C79.7588 24.6467 79.5439 24.5686 79.4346 24.5686C79.3799 24.5686 79.3447 24.6038 79.3291 24.6741C79.2354 25.0334 79.0361 25.2131 78.7314 25.2131C78.458 25.2131 78.3213 25.0608 78.3213 24.7561C78.3213 24.6702 78.2861 24.6272 78.2158 24.6272C78.1064 24.6272 77.9189 24.6975 77.6533 24.8381C77.3955 24.9709 77.1729 25.1975 76.9854 25.5178C76.8057 25.8303 76.7158 26.1819 76.7158 26.5725C76.7158 27.1272 76.9463 27.5999 77.4072 27.9905C77.8682 28.3733 78.3955 28.5647 78.9893 28.5647ZM78.8721 35.7717C79.8877 35.7717 80.7393 35.4788 81.4268 34.8928C82.1221 34.3069 82.4697 33.5413 82.4697 32.5959C82.4697 31.6428 82.1299 30.885 81.4502 30.3225C80.7783 29.76 79.9268 29.4788 78.8955 29.4788C77.7705 29.4788 76.8955 29.7639 76.2705 30.3342C75.6533 30.8967 75.3447 31.6663 75.3447 32.6428C75.3447 33.5803 75.7119 34.3342 76.4463 34.9045C77.1807 35.4827 77.9893 35.7717 78.8721 35.7717ZM92.5596 27.4163C92.7393 27.4163 92.8604 27.385 92.9229 27.3225C92.9854 27.26 93.0166 27.1467 93.0166 26.9827C93.0166 26.3811 92.7822 25.8186 92.3135 25.2952C91.8525 24.7717 91.1533 24.51 90.2158 24.51C89.5674 24.51 88.8955 24.8186 88.2002 25.4358C87.5127 26.053 87.1689 26.928 87.1689 28.0608C87.1689 28.8889 87.5322 29.635 88.2588 30.2991C88.9932 30.9553 89.8135 31.2834 90.7197 31.2834C91.4072 31.2834 92.1494 31.0686 92.9463 30.6389C93.251 30.4749 93.4502 30.3928 93.5439 30.3928C93.6846 30.3928 93.7939 30.4319 93.8721 30.51C93.958 30.5881 94.001 30.6858 94.001 30.803C94.001 31.0842 93.5674 31.4319 92.7002 31.8459C91.8408 32.2522 90.9541 32.4553 90.04 32.4553C88.6885 32.4553 87.5518 31.9944 86.6299 31.0725C85.708 30.1506 85.2471 29.053 85.2471 27.7795C85.2471 26.6155 85.751 25.6194 86.7588 24.7913C87.7744 23.9631 88.9111 23.5491 90.1689 23.5491C91.8018 23.5491 93.0244 23.967 93.8369 24.803C94.6494 25.6389 95.0557 26.6389 95.0557 27.803C95.0557 28.053 94.9932 28.2092 94.8682 28.2717C94.7432 28.3264 94.5127 28.3538 94.1768 28.3538H88.7979C88.3604 28.3538 88.1416 28.1936 88.1416 27.8733C88.1416 27.5686 88.3682 27.4163 88.8213 27.4163H92.5596ZM99.3213 29.385C99.3213 30.0413 99.3525 30.4631 99.415 30.6506C99.4775 30.8303 99.5908 30.9202 99.7549 30.9202C100.013 30.9202 100.329 30.7795 100.704 30.4983C101.079 30.217 101.329 30.0764 101.454 30.0764C101.556 30.0764 101.646 30.1233 101.724 30.217C101.802 30.3108 101.841 30.4241 101.841 30.5569C101.841 30.7756 101.532 31.1389 100.915 31.6467C100.306 32.1545 99.7666 32.4084 99.2979 32.4084C98.0635 32.4084 97.4463 31.5022 97.4463 29.6897V25.178C97.4463 25.0295 97.4268 24.9514 97.3877 24.9436C97.3486 24.928 97.1299 24.9202 96.7314 24.9202C96.4189 24.9202 96.208 24.8772 96.0986 24.7913C95.9893 24.6975 95.9346 24.5647 95.9346 24.3928C95.9346 24.2444 95.9736 24.1389 96.0518 24.0764C96.1377 24.0139 96.2979 23.9514 96.5322 23.8889C96.7744 23.8186 96.958 23.7405 97.083 23.6545C97.2158 23.5608 97.3955 23.3733 97.6221 23.092C97.8564 22.803 98.0205 22.4006 98.1143 21.885C98.2158 21.3694 98.2666 20.6272 98.2666 19.6584C98.2666 19.1975 98.3916 18.967 98.6416 18.967C98.9229 18.967 99.0986 19.0334 99.1689 19.1663C99.2393 19.2913 99.2744 19.5061 99.2744 19.8108V23.7249C99.2744 23.8811 99.376 23.9592 99.5791 23.9592H101.243C101.579 23.9592 101.747 24.1038 101.747 24.3928C101.747 24.7288 101.505 24.8967 101.021 24.8967H99.5557C99.4463 24.8967 99.3799 24.9163 99.3564 24.9553C99.333 24.9866 99.3213 25.0725 99.3213 25.2131V29.385Z" fill="#EC8206"/>
</svg>
